<svg aria-hidden="true" style="width:0;height:0;position:absolute;overflow:hidden" xmlns="http://www.w3.org/2000/svg"><defs><symbol id="icon-heart-l" viewBox="0 0 32 32"><path stroke-linejoin="round" stroke-linecap="round" stroke-width="2" d="M9.333 4c-3.681 0-6.667 2.955-6.667 6.6 0 2.943 1.167 9.927 12.651 16.987a1.316 1.316 0 0 0 1.366 0c11.484-7.06 12.651-14.044 12.651-16.987 0-3.645-2.985-6.6-6.667-6.6S16 8 16 8s-2.985-4-6.667-4z"/></symbol><symbol id="icon-Vector-up" viewBox="0 0 32 32"><path fill="#4440f6" style="fill:var(--color5,#4440f6)" d="M3.76 25.143 0 21.664 16 6.857l16 14.807-3.76 3.479L16 13.84 3.76 25.143z"/></symbol><symbol id="icon-down" viewBox="0 0 32 32"><path d="M3.76 9.143 0 12.622l16 14.806 16-14.806-3.76-3.479L16 20.445 3.76 9.143z"/></symbol><symbol id="icon-calendar" viewBox="0 0 32 32"><path d="M23.408 4.444h5.925a1.48 1.48 0 0 1 1.481 1.481V29.63a1.48 1.48 0 0 1-1.481 1.481H2.666a1.48 1.48 0 0 1-1.481-1.481V5.925a1.48 1.48 0 0 1 1.481-1.481h5.925V1.48h2.964v2.964h8.889V1.48h2.964v2.964zm4.444 11.853H4.147v11.851h23.705V16.297zm-7.408-8.889h-8.889v2.962H8.591V7.408H4.147v5.925h23.705V7.408h-4.444v2.962h-2.964V7.408zM7.111 19.259h2.964v2.964H7.111v-2.964zm7.408 0h2.962v2.964h-2.962v-2.964zm7.406 0h2.964v2.964h-2.964v-2.964z"/></symbol><symbol id="icon-x" viewBox="0 0 32 32"><path stroke-linejoin="round" stroke-linecap="round" stroke-width="2.667" d="M24 8 8 24M8 8l16 16"/></symbol><symbol id="icon-menu" viewBox="0 0 32 32"><path stroke-linejoin="round" stroke-linecap="round" stroke-width="2.667" d="M4 16h24M4 8h24M4 24h24"/></symbol><symbol id="icon-lupa" viewBox="0 0 34 32"><path d="M14.035 24c2.491 0 4.911-.793 6.873-2.251l6.17 5.861 1.985-1.885-6.17-5.861c1.535-1.864 2.37-4.163 2.371-6.531 0-5.881-5.037-10.667-11.228-10.667S2.808 7.451 2.808 13.333C2.808 19.214 7.845 24 14.036 24zm0-18.667c4.644 0 8.421 3.588 8.421 8s-3.777 8-8.421 8c-4.644 0-8.421-3.588-8.421-8s3.777-8 8.421-8z"/></symbol><symbol id="icon-moon" viewBox="0 0 32 32"><path stroke-linejoin="round" stroke-linecap="round" stroke-width="2.286" d="M28 17.053a11.994 11.994 0 0 1-7.873 10.182A12.003 12.003 0 0 1 4.338 18.56 12.002 12.002 0 0 1 14.946 3.999 9.335 9.335 0 0 0 28 17.053z"/></symbol><symbol id="icon-sun" viewBox="0 0 32 32"><path stroke-linejoin="round" stroke-linecap="round" stroke-width="2.286" d="M15.999 1.778v2.586m0 23.272v2.586M5.94 5.941l1.836 1.836m16.446 16.446 1.836 1.836M1.777 16h2.586m23.272 0h2.586M5.94 26.059l1.836-1.836M24.222 7.777l1.836-1.836M22.464 16a6.465 6.465 0 1 1-12.93 0 6.465 6.465 0 0 1 12.93 0z"/></symbol><symbol id="icon-dark" viewBox="0 0 85 32"><path d="M9.156 3.102c2.918 0 5.44.55 7.565 1.651 2.15 1.075 3.789 2.624 4.915 4.646 1.152 2.022 1.728 4.403 1.728 7.142s-.576 5.12-1.728 7.142c-1.126 1.997-2.765 3.533-4.915 4.608-2.125 1.05-4.646 1.574-7.565 1.574H.823V3.1h8.333zm0 23.885c3.456 0 6.093-.909 7.91-2.726 1.818-1.843 2.726-4.416 2.726-7.718 0-3.328-.922-5.926-2.765-7.795-1.818-1.869-4.442-2.803-7.872-2.803H4.317v21.043h4.838zm17.512-7.719c0-2.15.435-4.032 1.306-5.645.87-1.638 2.061-2.906 3.571-3.802 1.536-.896 3.238-1.344 5.107-1.344 1.843 0 3.443.397 4.8 1.19s2.368 1.792 3.034 2.995v-3.84h3.533v21.043h-3.533v-3.917c-.691 1.229-1.728 2.253-3.11 3.072-1.357.794-2.944 1.19-4.762 1.19-1.869 0-3.558-.461-5.069-1.382s-2.701-2.214-3.571-3.878c-.87-1.664-1.306-3.558-1.306-5.683zm17.818.039c0-1.587-.32-2.97-.96-4.147s-1.51-2.074-2.611-2.688c-1.075-.64-2.266-.96-3.571-.96s-2.496.307-3.571.922c-1.075.614-1.933 1.51-2.573 2.688s-.96 2.56-.96 4.147c0 1.613.32 3.021.96 4.224.64 1.178 1.498 2.086 2.573 2.726 1.075.614 2.266.922 3.571.922s2.496-.307 3.571-.922c1.101-.64 1.971-1.549 2.611-2.726.64-1.203.96-2.598.96-4.186zm12.932-7.066c.614-1.203 1.485-2.138 2.611-2.803 1.152-.666 2.547-.998 4.186-.998v3.61h-.922c-3.917 0-5.875 2.125-5.875 6.374v11.443h-3.494V8.824h3.494v3.418zm22.581 17.626-8.256-9.293v9.293h-3.494V1.451h3.494v16.704l8.102-9.331h4.877l-9.907 10.483 9.946 10.56h-4.762z"/></symbol><symbol id="icon-light" viewBox="0 0 69 32"><path d="M3.409 21.336h7.397v2.243H.65V2.449h2.759v18.887zM15.16 4.268c-.525 0-.97-.182-1.334-.546s-.546-.808-.546-1.334c0-.525.182-.97.546-1.334s.808-.546 1.334-.546c.505 0 .93.182 1.273.546.364.364.546.808.546 1.334s-.182.97-.546 1.334a1.682 1.682 0 0 1-1.273.546zm1.334 2.698v16.613h-2.759V6.966h2.759zm11.553-.273c1.435 0 2.688.313 3.759.94 1.091.627 1.9 1.415 2.425 2.365V6.966h2.789v16.977c0 1.516-.323 2.86-.97 4.032a6.866 6.866 0 0 1-2.789 2.789c-1.192.667-2.587 1-4.184 1-2.183 0-4.002-.515-5.457-1.546s-2.314-2.435-2.577-4.214h2.728c.303 1.011.93 1.819 1.88 2.425.95.627 2.092.94 3.426.94 1.516 0 2.749-.475 3.699-1.425.97-.95 1.455-2.284 1.455-4.002v-3.486c-.546.97-1.354 1.779-2.425 2.425s-2.324.97-3.759.97c-1.475 0-2.819-.364-4.032-1.091-1.192-.728-2.132-1.748-2.819-3.062s-1.031-2.809-1.031-4.487c0-1.698.344-3.183 1.031-4.456.687-1.293 1.627-2.294 2.819-3.001 1.213-.707 2.557-1.061 4.032-1.061zm6.185 8.549c0-1.253-.253-2.344-.758-3.274s-1.192-1.637-2.061-2.122c-.849-.505-1.789-.758-2.819-.758s-1.971.243-2.819.728c-.849.485-1.526 1.192-2.031 2.122s-.758 2.021-.758 3.274c0 1.273.253 2.385.758 3.335.505.93 1.182 1.647 2.031 2.152.849.485 1.789.728 2.819.728s1.971-.243 2.819-.728c.869-.505 1.556-1.223 2.061-2.152.505-.95.758-2.051.758-3.304zm15.697-8.579c1.253 0 2.385.273 3.395.819 1.011.525 1.799 1.324 2.365 2.395.586 1.071.879 2.375.879 3.911v9.792H53.84v-9.398c0-1.657-.414-2.92-1.243-3.789-.829-.889-1.96-1.334-3.395-1.334-1.455 0-2.617.455-3.486 1.364-.849.909-1.273 2.233-1.273 3.971v9.186h-2.759V1.146h2.759v8.185c.546-.849 1.293-1.506 2.243-1.971.97-.465 2.051-.697 3.244-.697zM64.44 9.24v9.792c0 .808.172 1.384.515 1.728.344.323.94.485 1.789.485h2.031v2.334h-2.486c-1.536 0-2.688-.354-3.456-1.061s-1.152-1.869-1.152-3.486V9.24h-2.152V6.966h2.152V2.782h2.759v4.184h4.335V9.24H64.44z"/></symbol><symbol id="icon-location" viewBox="0 0 32 32"><path fill="#fff" style="fill:var(--color1,#fff)" d="M16 2A11.018 11.018 0 0 0 5 13a10.892 10.892 0 0 0 2.216 6.6s.3.395.349.452L16 30l8.439-9.953c.044-.053.345-.447.345-.447l.001-.003A10.89 10.89 0 0 0 27 13 11.018 11.018 0 0 0 16 2zm0 15a4.002 4.002 0 0 1-3.923-4.78 4.006 4.006 0 0 1 3.143-3.143 3.996 3.996 0 0 1 3.607 6.75A4.004 4.004 0 0 1 16 17z"/></symbol><symbol id="icon-round-home" viewBox="0 0 32 32"><path fill="#4440f6" style="fill:var(--color2,#4440f6)" d="M32 16c0 8.837-7.163 16-16 16S0 24.837 0 16 7.163 0 16 0s16 7.163 16 16z"/><path fill="none" stroke="#f4f4f4" style="stroke:var(--color1,#f4f4f4)" stroke-linejoin="round" stroke-linecap="round" d="M9.25 13.75 16 8.5l6.75 5.25V22a1.503 1.503 0 0 1-1.5 1.5h-10.5a1.503 1.503 0 0 1-1.5-1.5v-8.25z"/><path fill="none" stroke="#f4f4f4" style="stroke:var(--color1,#f4f4f4)" stroke-linejoin="round" stroke-linecap="round" d="M14 23.5V16h4.5v7.5"/></symbol><symbol id="icon-round-heart" viewBox="0 0 32 32"><path fill="#4440f6" style="fill:var(--color2,#4440f6)" d="M32 16c0 8.837-7.163 16-16 16S0 24.837 0 16 7.163 0 16 0s16 7.163 16 16z"/><path fill="none" stroke="#f4f4f4" style="stroke:var(--color1,#f4f4f4)" stroke-linejoin="round" stroke-linecap="round" d="M22.631 10.457a4.111 4.111 0 0 0-4.496-.895 4.09 4.09 0 0 0-1.338.895l-.795.795-.795-.795a4.125 4.125 0 0 0-5.836 0 4.125 4.125 0 0 0 0 5.836l6.63 6.63 6.63-6.63a4.111 4.111 0 0 0 .895-4.496 4.116 4.116 0 0 0-.895-1.338v0z"/></symbol><symbol id="icon-round-book" viewBox="0 0 32 32"><path fill="#4440f6" style="fill:var(--color2,#4440f6)" d="M32 16c0 8.837-7.163 16-16 16S0 24.837 0 16 7.163 0 16 0s16 7.163 16 16z"/><path fill="none" stroke="#f4f4f4" style="stroke:var(--color1,#f4f4f4)" stroke-linejoin="round" stroke-linecap="round" d="M8.5 9.25H13a3.004 3.004 0 0 1 3 3v10.5a2.25 2.25 0 0 0-2.25-2.25H8.5V9.25zM23.5 9.25H19a3.004 3.004 0 0 0-3 3v10.5a2.25 2.25 0 0 1 2.25-2.25h5.25V9.25z"/></symbol><symbol id="icon-chevron-right" viewBox="0 0 32 32"><path fill="none" stroke="#f4f4f4" style="stroke:var(--color1,#f4f4f4)" stroke-linejoin="round" stroke-linecap="round" stroke-width="2.667" d="m12 24 8-8-8-8"/></symbol><symbol id="icon-open-calendar" viewBox="0 0 53 32"><path d="M6.267 0 0 6.089 26.667 32 53.334 6.089 47.067 0l-20.4 19.779L6.267 0z"/></symbol></defs></svg>