<svg aria-hidden="true" style="position: absolute; width: 0; height: 0; overflow: hidden;" version="1.1" xmlns="http://www.w3.org/2000/svg" xmlns:xlink="http://www.w3.org/1999/xlink">
<defs>
<symbol id="icon-heart-l" viewBox="0 0 32 32">
<path stroke-linejoin="round" stroke-linecap="round" stroke-miterlimit="4" stroke-width="2" d="M9.333 4c-3.681 0-6.667 2.955-6.667 6.6 0 2.943 1.167 9.927 12.651 16.987 0.206 0.125 0.442 0.191 0.683 0.191s0.477-0.066 0.683-0.191c11.484-7.060 12.651-14.044 12.651-16.987 0-3.645-2.985-6.6-6.667-6.6s-6.667 4-6.667 4-2.985-4-6.667-4z"></path>
</symbol>
<symbol id="icon-Vector-up" viewBox="0 0 32 32">
<path fill="#4440f6" style="fill: var(--color5, #4440f6)" d="M3.76 25.143l-3.76-3.479 16-14.807 16 14.807-3.76 3.479-12.24-11.303-12.24 11.303z"></path>
</symbol>
<symbol id="icon-down" viewBox="0 0 32 32">
<path d="M3.76 9.143l-3.76 3.479 16 14.806 16-14.806-3.76-3.479-12.24 11.302-12.24-11.302z"></path>
</symbol>
<symbol id="icon-calendar" viewBox="0 0 32 32">
<path d="M23.408 4.444h5.925c0.818 0 1.481 0.663 1.481 1.481v0 23.705c0 0.818-0.663 1.481-1.481 1.481v0h-26.667c-0.818 0-1.481-0.663-1.481-1.481v0-23.705c0-0.818 0.663-1.481 1.481-1.481v0h5.925v-2.964h2.964v2.964h8.889v-2.964h2.964v2.964zM27.852 16.297h-23.705v11.851h23.705v-11.851zM20.444 7.408h-8.889v2.962h-2.964v-2.962h-4.444v5.925h23.705v-5.925h-4.444v2.962h-2.964v-2.962zM7.111 19.259h2.964v2.964h-2.964v-2.964zM14.519 19.259h2.962v2.964h-2.962v-2.964zM21.925 19.259h2.964v2.964h-2.964v-2.964z"></path>
</symbol>
<symbol id="icon-x" viewBox="0 0 32 32">
<path stroke-linejoin="round" stroke-linecap="round" stroke-miterlimit="4" stroke-width="2.6667" d="M24 8l-16 16"></path>
<path stroke-linejoin="round" stroke-linecap="round" stroke-miterlimit="4" stroke-width="2.6667" d="M8 8l16 16"></path>
</symbol>
<symbol id="icon-menu" viewBox="0 0 32 32">
<path stroke-linejoin="round" stroke-linecap="round" stroke-miterlimit="4" stroke-width="2.6667" d="M4 16h24"></path>
<path stroke-linejoin="round" stroke-linecap="round" stroke-miterlimit="4" stroke-width="2.6667" d="M4 8h24"></path>
<path stroke-linejoin="round" stroke-linecap="round" stroke-miterlimit="4" stroke-width="2.6667" d="M4 24h24"></path>
</symbol>
<symbol id="icon-lupa" viewBox="0 0 34 32">
<path d="M14.035 24c2.491-0 4.911-0.793 6.873-2.251l6.17 5.861 1.985-1.885-6.17-5.861c1.535-1.864 2.37-4.163 2.371-6.531 0-5.881-5.037-10.667-11.228-10.667s-11.228 4.785-11.228 10.667c0 5.881 5.037 10.667 11.228 10.667zM14.035 5.333c4.644 0 8.421 3.588 8.421 8s-3.777 8-8.421 8c-4.644 0-8.421-3.588-8.421-8s3.777-8 8.421-8z"></path>
</symbol>
<symbol id="icon-moon" viewBox="0 0 32 32">
<path stroke-linejoin="round" stroke-linecap="round" stroke-miterlimit="4" stroke-width="2.2857" d="M28 17.053c-0.21 2.27-1.061 4.433-2.456 6.236s-3.273 3.172-5.417 3.946c-2.144 0.774-4.464 0.922-6.688 0.426s-4.262-1.615-5.874-3.227c-1.612-1.612-2.731-3.649-3.227-5.874s-0.348-4.544 0.426-6.688 2.143-4.023 3.946-5.417c1.803-1.394 3.966-2.246 6.236-2.456-1.329 1.798-1.968 4.013-1.802 6.242s1.127 4.325 2.708 5.906c1.581 1.581 3.676 2.542 5.906 2.708s4.444-0.473 6.242-1.802v0z"></path>
</symbol>
<symbol id="icon-sun" viewBox="0 0 32 32">
<path stroke-linejoin="round" stroke-linecap="round" stroke-miterlimit="4" stroke-width="2.2857" d="M15.999 1.778v2.586M15.999 27.636v2.586M5.94 5.941l1.836 1.836M24.222 24.223l1.836 1.836M1.777 16h2.586M27.635 16h2.586M5.94 26.059l1.836-1.836M24.222 7.777l1.836-1.836M22.464 16c0 3.57-2.894 6.465-6.465 6.465s-6.465-2.894-6.465-6.465c0-3.57 2.894-6.465 6.465-6.465s6.465 2.894 6.465 6.465z"></path>
</symbol>
<symbol id="icon-dark" viewBox="0 0 85 32">
<path d="M9.156 3.102c2.918 0 5.44 0.55 7.565 1.651 2.15 1.075 3.789 2.624 4.915 4.646 1.152 2.022 1.728 4.403 1.728 7.142s-0.576 5.12-1.728 7.142c-1.126 1.997-2.765 3.533-4.915 4.608-2.125 1.050-4.646 1.574-7.565 1.574h-8.333v-26.765h8.333zM9.156 26.987c3.456 0 6.093-0.909 7.91-2.726 1.818-1.843 2.726-4.416 2.726-7.718 0-3.328-0.922-5.926-2.765-7.795-1.818-1.869-4.442-2.803-7.872-2.803h-4.838v21.043h4.838zM26.668 19.268c0-2.15 0.435-4.032 1.306-5.645 0.87-1.638 2.061-2.906 3.571-3.802 1.536-0.896 3.238-1.344 5.107-1.344 1.843 0 3.443 0.397 4.8 1.19s2.368 1.792 3.034 2.995v-3.84h3.533v21.043h-3.533v-3.917c-0.691 1.229-1.728 2.253-3.11 3.072-1.357 0.794-2.944 1.19-4.762 1.19-1.869 0-3.558-0.461-5.069-1.382s-2.701-2.214-3.571-3.878c-0.87-1.664-1.306-3.558-1.306-5.683zM44.486 19.307c0-1.587-0.32-2.97-0.96-4.147s-1.51-2.074-2.611-2.688c-1.075-0.64-2.266-0.96-3.571-0.96s-2.496 0.307-3.571 0.922c-1.075 0.614-1.933 1.51-2.573 2.688s-0.96 2.56-0.96 4.147c0 1.613 0.32 3.021 0.96 4.224 0.64 1.178 1.498 2.086 2.573 2.726 1.075 0.614 2.266 0.922 3.571 0.922s2.496-0.307 3.571-0.922c1.101-0.64 1.971-1.549 2.611-2.726 0.64-1.203 0.96-2.598 0.96-4.186zM57.418 12.241c0.614-1.203 1.485-2.138 2.611-2.803 1.152-0.666 2.547-0.998 4.186-0.998v3.61h-0.922c-3.917 0-5.875 2.125-5.875 6.374v11.443h-3.494v-21.043h3.494v3.418zM79.999 29.867l-8.256-9.293v9.293h-3.494v-28.416h3.494v16.704l8.102-9.331h4.877l-9.907 10.483 9.946 10.56h-4.762z"></path>
</symbol>
<symbol id="icon-light" viewBox="0 0 69 32">
<path d="M3.409 21.336h7.397v2.243h-10.156v-21.13h2.759v18.887zM15.16 4.268c-0.525 0-0.97-0.182-1.334-0.546s-0.546-0.808-0.546-1.334c0-0.525 0.182-0.97 0.546-1.334s0.808-0.546 1.334-0.546c0.505 0 0.93 0.182 1.273 0.546 0.364 0.364 0.546 0.808 0.546 1.334s-0.182 0.97-0.546 1.334c-0.344 0.364-0.768 0.546-1.273 0.546zM16.494 6.966v16.613h-2.759v-16.613h2.759zM28.047 6.693c1.435 0 2.688 0.313 3.759 0.94 1.091 0.627 1.9 1.415 2.425 2.365v-3.032h2.789v16.977c0 1.516-0.323 2.86-0.97 4.032-0.647 1.192-1.576 2.122-2.789 2.789-1.192 0.667-2.587 1-4.184 1-2.183 0-4.002-0.515-5.457-1.546s-2.314-2.435-2.577-4.214h2.728c0.303 1.011 0.93 1.819 1.88 2.425 0.95 0.627 2.092 0.94 3.426 0.94 1.516 0 2.749-0.475 3.699-1.425 0.97-0.95 1.455-2.284 1.455-4.002v-3.486c-0.546 0.97-1.354 1.779-2.425 2.425s-2.324 0.97-3.759 0.97c-1.475 0-2.819-0.364-4.032-1.091-1.192-0.728-2.132-1.748-2.819-3.062s-1.031-2.809-1.031-4.487c0-1.698 0.344-3.183 1.031-4.456 0.687-1.293 1.627-2.294 2.819-3.001 1.213-0.707 2.557-1.061 4.032-1.061zM34.232 15.242c0-1.253-0.253-2.344-0.758-3.274s-1.192-1.637-2.061-2.122c-0.849-0.505-1.789-0.758-2.819-0.758s-1.971 0.243-2.819 0.728c-0.849 0.485-1.526 1.192-2.031 2.122s-0.758 2.021-0.758 3.274c0 1.273 0.253 2.385 0.758 3.335 0.505 0.93 1.182 1.647 2.031 2.152 0.849 0.485 1.789 0.728 2.819 0.728s1.971-0.243 2.819-0.728c0.869-0.505 1.556-1.223 2.061-2.152 0.505-0.95 0.758-2.051 0.758-3.304zM49.929 6.663c1.253 0 2.385 0.273 3.395 0.819 1.011 0.525 1.799 1.324 2.365 2.395 0.586 1.071 0.879 2.375 0.879 3.911v9.792h-2.728v-9.398c0-1.657-0.414-2.92-1.243-3.789-0.829-0.889-1.96-1.334-3.395-1.334-1.455 0-2.617 0.455-3.486 1.364-0.849 0.909-1.273 2.233-1.273 3.971v9.186h-2.759v-22.434h2.759v8.185c0.546-0.849 1.293-1.506 2.243-1.971 0.97-0.465 2.051-0.697 3.244-0.697zM64.44 9.24v9.792c0 0.808 0.172 1.384 0.515 1.728 0.344 0.323 0.94 0.485 1.789 0.485h2.031v2.334h-2.486c-1.536 0-2.688-0.354-3.456-1.061s-1.152-1.869-1.152-3.486v-9.792h-2.152v-2.274h2.152v-4.184h2.759v4.184h4.335v2.274h-4.335z"></path>
</symbol>
<symbol id="icon-location" viewBox="0 0 32 32">
<path fill="#fff" style="fill: var(--color1, #fff)" d="M16 2c-2.916 0.003-5.712 1.163-7.774 3.226s-3.222 4.858-3.226 7.774c-0.003 2.383 0.775 4.702 2.216 6.6 0 0 0.3 0.395 0.349 0.452l8.435 9.948 8.439-9.953c0.044-0.053 0.345-0.447 0.345-0.447l0.001-0.003c1.44-1.897 2.218-4.215 2.215-6.597-0.003-2.916-1.163-5.712-3.226-7.774s-4.858-3.222-7.774-3.226zM16 17c-0.791 0-1.565-0.235-2.222-0.674s-1.171-1.064-1.473-1.795c-0.303-0.731-0.382-1.535-0.228-2.311s0.535-1.489 1.095-2.048c0.559-0.559 1.272-0.94 2.048-1.095s1.58-0.075 2.311 0.228c0.731 0.303 1.356 0.815 1.795 1.473s0.674 1.431 0.674 2.222c-0.001 1.060-0.423 2.077-1.173 2.827s-1.767 1.172-2.827 1.173z"></path>
</symbol>
<symbol id="icon-round-home" viewBox="0 0 32 32">
<path fill="#4440f6" style="fill: var(--color2, #4440f6)" d="M32 16c0 8.837-7.163 16-16 16s-16-7.163-16-16c0-8.837 7.163-16 16-16s16 7.163 16 16z"></path>
<path fill="none" stroke="#f4f4f4" style="stroke: var(--color1, #f4f4f4)" stroke-linejoin="round" stroke-linecap="round" stroke-miterlimit="4" stroke-width="1" d="M9.25 13.75l6.75-5.25 6.75 5.25v8.25c0 0.398-0.158 0.779-0.439 1.061s-0.663 0.439-1.061 0.439h-10.5c-0.398 0-0.779-0.158-1.061-0.439s-0.439-0.663-0.439-1.061v-8.25z"></path>
<path fill="none" stroke="#f4f4f4" style="stroke: var(--color1, #f4f4f4)" stroke-linejoin="round" stroke-linecap="round" stroke-miterlimit="4" stroke-width="1" d="M14 23.5v-7.5h4.5v7.5"></path>
</symbol>
<symbol id="icon-round-heart" viewBox="0 0 32 32">
<path fill="#4440f6" style="fill: var(--color2, #4440f6)" d="M32 16c0 8.837-7.163 16-16 16s-16-7.163-16-16c0-8.837 7.163-16 16-16s16 7.163 16 16z"></path>
<path fill="none" stroke="#f4f4f4" style="stroke: var(--color1, #f4f4f4)" stroke-linejoin="round" stroke-linecap="round" stroke-miterlimit="4" stroke-width="1" d="M22.631 10.457c-0.383-0.383-0.838-0.687-1.338-0.895s-1.037-0.314-1.579-0.314c-0.542 0-1.078 0.107-1.579 0.314s-0.956 0.511-1.338 0.895l-0.795 0.795-0.795-0.795c-0.774-0.774-1.823-1.208-2.918-1.208s-2.144 0.435-2.918 1.208c-0.774 0.774-1.208 1.823-1.208 2.918s0.435 2.144 1.208 2.918l6.63 6.63 6.63-6.63c0.383-0.383 0.687-0.838 0.895-1.338s0.314-1.037 0.314-1.579c0-0.542-0.107-1.078-0.314-1.579s-0.512-0.955-0.895-1.338v0z"></path>
</symbol>
<symbol id="icon-round-book" viewBox="0 0 32 32">
<path fill="#4440f6" style="fill: var(--color2, #4440f6)" d="M32 16c0 8.837-7.163 16-16 16s-16-7.163-16-16c0-8.837 7.163-16 16-16s16 7.163 16 16z"></path>
<path fill="none" stroke="#f4f4f4" style="stroke: var(--color1, #f4f4f4)" stroke-linejoin="round" stroke-linecap="round" stroke-miterlimit="4" stroke-width="1" d="M8.5 9.25h4.5c0.796 0 1.559 0.316 2.121 0.879s0.879 1.326 0.879 2.121v10.5c0-0.597-0.237-1.169-0.659-1.591s-0.994-0.659-1.591-0.659h-5.25v-11.25z"></path>
<path fill="none" stroke="#f4f4f4" style="stroke: var(--color1, #f4f4f4)" stroke-linejoin="round" stroke-linecap="round" stroke-miterlimit="4" stroke-width="1" d="M23.5 9.25h-4.5c-0.796 0-1.559 0.316-2.121 0.879s-0.879 1.326-0.879 2.121v10.5c0-0.597 0.237-1.169 0.659-1.591s0.994-0.659 1.591-0.659h5.25v-11.25z"></path>
</symbol>
<symbol id="icon-chevron-right" viewBox="0 0 32 32">
<path fill="none" stroke="#f4f4f4" style="stroke: var(--color1, #f4f4f4)" stroke-linejoin="round" stroke-linecap="round" stroke-miterlimit="4" stroke-width="2.6667" d="M12 24l8-8-8-8"></path>
</symbol>
<symbol id="icon-open-calendar" viewBox="0 0 53 32">
<path d="M6.267 0l-6.267 6.089 26.667 25.911 26.667-25.911-6.267-6.089-20.4 19.779-20.4-19.779z"></path>
</symbol>

</defs>
</svg>
